<?xml version="1.0" encoding="iso-8859-1"?>
<!-- Generator: Adobe Illustrator 17.1.0, SVG Export Plug-In . SVG Version: 6.00 Build 0)  -->
<!DOCTYPE svg PUBLIC "-//W3C//DTD SVG 1.1//EN" "http://www.w3.org/Graphics/SVG/1.1/DTD/svg11.dtd">
<svg version="1.1" id="Capa_1" xmlns="http://www.w3.org/2000/svg" xmlns:xlink="http://www.w3.org/1999/xlink" x="0px" y="0px"
	 viewBox="0 0 201.656 201.656" style="enable-background:new 0 0 201.656 201.656;" xml:space="preserve">
<path d="M179.781,3.578c-0.732-2.472-3.228-3.98-5.757-3.484L150.787,4.66H50.869L27.631,0.094
	c-2.523-0.493-5.023,1.011-5.757,3.484c-0.477,1.603-11.412,39.524,9.326,62.292C46.207,82.345,73.79,85.764,88.11,86.385
	c1.356,2.668,2.112,5.656,2.112,8.772v21.882c0,7.026-4.53,13.306-11.273,15.625c-8.291,2.851-13.872,7.21-16.059,12.352H50.583
	c-2.762,0-5,2.239-5,5v46.639c0,2.761,2.238,5,5,5h100.491c2.762,0,5-2.239,5-5v-46.639c0-2.761-2.238-5-5-5h-12.307
	c-2.187-5.142-7.768-9.501-16.058-12.352c-6.744-2.32-11.274-8.599-11.274-15.625V95.158c0-3.117,0.756-6.105,2.112-8.773
	c14.322-0.622,41.904-4.042,56.908-20.515C191.194,43.102,180.257,5.181,179.781,3.578z M38.593,59.137
	C25.329,44.573,28.419,20.65,30.42,10.834l14.246,2.799c-0.707,3.616-1.072,7.293-1.072,10.988
	c0,21.062,11.488,40.184,29.687,50.168C61.106,72.771,47.054,68.425,38.593,59.137z M127.209,187.217H74.447c-2.762,0-5-2.239-5-5
	s2.238-5,5-5h52.762c2.762,0,5,2.239,5,5S129.97,187.217,127.209,187.217z M140.729,160.669c2.762,0,5,2.239,5,5s-2.238,5-5,5
	H60.926c-2.762,0-5-2.239-5-5s2.238-5,5-5H140.729z M163.062,59.137c-8.461,9.29-22.517,13.637-34.693,15.655
	c18.203-9.982,29.693-29.107,29.693-50.172c0-3.695-0.365-7.372-1.072-10.988l14.254-2.801
	C173.26,20.636,176.374,44.522,163.062,59.137z"/>
<g>
</g>
<g>
</g>
<g>
</g>
<g>
</g>
<g>
</g>
<g>
</g>
<g>
</g>
<g>
</g>
<g>
</g>
<g>
</g>
<g>
</g>
<g>
</g>
<g>
</g>
<g>
</g>
<g>
</g>
</svg>
